<svg width="1836" height="1213" viewBox="0 0 1836 1213" fill="none" xmlns="http://www.w3.org/2000/svg">
<g style="mix-blend-mode:multiply" opacity="0.06">
<path fill-rule="evenodd" clip-rule="evenodd" d="M1297.28 499.122L974.545 312.669V312.577L434.339 625.004L434.232 874.446L649.929 749.81V588.329V588.052L974.011 400.824L1328.43 605.337L1835.18 312.577V188.367L1297.28 499.122Z" fill="#8F9DAA"/>
<path fill-rule="evenodd" clip-rule="evenodd" d="M972.64 312.527L972.699 312.56V312.585L1080 250.615L865.295 126.669L865.337 250.564L972.699 312.492L972.64 312.527Z" fill="#ABBCCC"/>
<path fill-rule="evenodd" clip-rule="evenodd" d="M1080.82 125.047L1188.51 186.722L1188.59 186.677V63.3267L1080.82 125.047Z" fill="#8F9DAA"/>
<path fill-rule="evenodd" clip-rule="evenodd" d="M1296.58 375.105L1512.71 250.842V126.669L1188.59 313.019L1296.58 375.105Z" fill="#8F9DAA"/>
<path fill-rule="evenodd" clip-rule="evenodd" d="M865.295 126.134V126.227L1080.76 250.521L973.079 312.665V312.757L1296.37 499.324L1835.18 188.379V188.287L1727.42 126.098L1511.9 250.475L1296.37 374.854L1188.68 312.71L1511.9 126.189V126.098L1404.13 63.9086L1188.6 188.287L1188.53 188.24L1080.84 126.098L1080.82 126.109V126.085L1080.84 126.098L1188.6 63.9086V63.817L1080.84 1.62891L865.295 126.134Z" fill="#F1F1F3"/>
<path fill-rule="evenodd" clip-rule="evenodd" d="M648.941 374.283L757.183 311.847L757.529 311.647L649.345 249.242V249.243L648.941 374.283Z" fill="#ABBCCC"/>
<path fill-rule="evenodd" clip-rule="evenodd" d="M973.06 528.116L869.408 588.168L973.06 528.116Z" fill="#2496ED"/>
<path fill-rule="evenodd" clip-rule="evenodd" d="M649.763 250.887L434.232 375.609V500.146L649.763 375.115V250.887Z" fill="#8F9DAA"/>
<path fill-rule="evenodd" clip-rule="evenodd" d="M433.964 499.169L434.232 499.324V375.081L109.291 188.367V312.808L433.964 499.169Z" fill="#ABBCCC"/>
<path fill-rule="evenodd" clip-rule="evenodd" d="M433.41 128.314L329.758 188.367L433.41 248.419V128.314Z" fill="#ABBCCC"/>
<path fill-rule="evenodd" clip-rule="evenodd" d="M434.232 248.419L537.885 188.366L434.232 128.314V248.419Z" fill="#8F9DAA"/>
<path fill-rule="evenodd" clip-rule="evenodd" d="M0.703125 624.437L434.233 874.445V624.869L0.916284 375.105L0.703125 624.437Z" fill="#ABBCCC"/>
<path fill-rule="evenodd" clip-rule="evenodd" d="M433.154 0.806641L108.823 188.306V188.583V188.584L433.154 376.083L649.284 251.135L649.766 250.855L757.484 313.128L757.139 313.329L433.154 500.846L432.886 500.691L108.823 313.548L0.703125 375.898L433.262 626.01L973.824 313.071L973.882 313.036L866.241 250.883L433.154 0.806641ZM329.375 188.442L433.153 128.448L536.931 188.442L433.153 248.439L329.375 188.442Z" fill="#F1F1F3"/>
<path fill-rule="evenodd" clip-rule="evenodd" d="M973.059 1025.81L1080.65 963.191V838.352L1188.59 775.84L1188.51 775.794V651.511L973.059 776.287V1025.81Z" fill="#8F9DAA"/>
<path fill-rule="evenodd" clip-rule="evenodd" d="M1189.21 900.531V1025.32L1080.82 1087.76V1212.55L1297.59 1087.67V962.941V962.881L1514.35 837.999V713.209L1189.21 900.531Z" fill="#8F9DAA"/>
<path fill-rule="evenodd" clip-rule="evenodd" d="M1188.67 774.907L1297.18 712.271L1189.07 649.866L1188.59 650.145V774.861L1188.67 774.907Z" fill="#ABBCCC"/>
<path fill-rule="evenodd" clip-rule="evenodd" d="M1080.82 962.712L1189.41 1024.99V900.526L1080.82 838.25V962.712Z" fill="#ABBCCC"/>
<path fill-rule="evenodd" clip-rule="evenodd" d="M648.941 748.959V961.832L1081.65 1211.73V1086.79L973.607 1024.44V774.727V774.727L648.941 587.345V748.959ZM759.369 770.629L869.65 834.279L837.501 852.91L869.723 834.237V834.321L869.798 834.364L869.723 834.407L869.866 961.705L869.798 961.664L759.448 898.14L759.527 898.095L816.546 865.053L759.369 898.005V770.629Z" fill="#ABBCCC"/>
<path fill-rule="evenodd" clip-rule="evenodd" d="M869.408 835.021L869.462 834.989L869.408 834.959V835.021Z" fill="#2496ED"/>
<path fill-rule="evenodd" clip-rule="evenodd" d="M868.585 833.276L758.352 769.971V896.657L815.504 863.884L836.45 851.806L868.585 833.276Z" fill="#8F9DAA"/>
<path fill-rule="evenodd" clip-rule="evenodd" d="M868.443 835.044V834.959L836.273 853.638L815.354 865.785L758.429 898.838L758.352 898.883L868.516 962.428L868.585 962.468L868.443 835.128V835.044Z" fill="#F1F1F3"/>
<path fill-rule="evenodd" clip-rule="evenodd" d="M1080.69 1087.51L1188.59 1024.99L1080.69 962.468L973.059 1025.14L1080.69 1087.51Z" fill="#F1F1F3"/>
<path fill-rule="evenodd" clip-rule="evenodd" d="M972.786 647.103V647.103L869.164 587.184L972.786 527.266L1076.41 587.184L972.786 647.103ZM648.941 587.045V587.321L972.789 774.582L1188.6 649.795L1189.08 649.516L1296.63 711.71L1080.56 836.654L1188.6 899.125L1512.71 711.617L1326.95 604.333L972.789 399.784L648.941 587.045Z" fill="#F1F1F3"/>
<path fill-rule="evenodd" clip-rule="evenodd" d="M869.408 588.168L973.06 648.221V528.116L869.408 588.168Z" fill="#8F9DAA"/>
<path fill-rule="evenodd" clip-rule="evenodd" d="M973.059 648.221V648.221L1076.71 588.168L973.059 528.116V648.221Z" fill="#ABBCCC"/>
</g>
</svg>
